<svg width="70" height="70" viewBox="0 0 70 70" fill="none" xmlns="http://www.w3.org/2000/svg">
<rect width="70" height="70" fill="black" fill-opacity="0"/>
<circle cx="35" cy="35" r="35" fill="#FD9E66"/>
<path d="M35 41C33.3125 41 31.875 40.4375 30.75 39.25C29.5625 38.125 29 36.6875 29 35V25C29 23.375 29.5625 21.9375 30.75 20.75C31.875 19.625 33.3125 19 35 19C36.625 19 38.0625 19.625 39.25 20.75C40.375 21.9375 41 23.375 41 25V35C41 36.6875 40.375 38.125 39.25 39.25C38.0625 40.4375 36.625 41 35 41ZM45 31C45.25 31 45.5 31.125 45.6875 31.3125C45.875 31.5 46 31.75 46 32V35C46 36.875 45.5625 38.5625 44.75 40.125C43.875 41.6875 42.75 43 41.3125 44C39.8125 45 38.25 45.625 36.5 45.875V48H40C40.25 48 40.5 48.125 40.6875 48.3125C40.875 48.5 41 48.75 41 49V50C41 50.3125 40.875 50.5625 40.6875 50.75C40.5 50.9375 40.25 51 40 51H30C29.6875 51 29.4375 50.9375 29.25 50.75C29.0625 50.5625 29 50.3125 29 50V49C29 48.75 29.0625 48.5 29.25 48.3125C29.4375 48.125 29.6875 48 30 48H33.5V45.875C31.6875 45.625 30.0625 45 28.625 43.875C27.125 42.8125 26 41.4375 25.1875 39.8125C24.375 38.1875 24 36.375 24 34.5V32C24 31.75 24.0625 31.5 24.25 31.3125C24.4375 31.125 24.6875 31 25 31H26C26.25 31 26.5 31.125 26.6875 31.3125C26.875 31.5 27 31.75 27 32V34.625C27 36 27.3125 37.3125 27.9375 38.5625C28.5625 39.8125 29.375 40.8125 30.5 41.5625C31.625 42.375 32.8125 42.8125 34.1875 42.9375C35.75 43.125 37.1875 42.875 38.5625 42.1875C39.875 41.5 40.9375 40.5 41.75 39.25C42.5625 38 43 36.5625 43 35V32C43 31.75 43.0625 31.5 43.25 31.3125C43.4375 31.125 43.6875 31 44 31H45Z" fill="#2C3E50"/>
</svg>
